<svg xmlns="http://www.w3.org/2000/svg" aria-hidden="true" style="position:absolute;width:0;height:0;overflow:hidden"><defs><symbol id="icon-animation" viewBox="0 0 32 32"><path d="M32 16c0 8.837-7.163 16-16 16S0 24.837 0 16 7.163 0 16 0s16 7.163 16 16z" style="fill:var(--color1, #000)"/><path fill="#fff" d="M19.411 11.816a1.53 1.53 0 0 0 .518-1.121v-.006c0-.854-.692-1.546-1.546-1.546h-.006a1.59 1.59 0 0 0-.952.347l.003-.002a1.61 1.61 0 0 0-.488 1.119v.002a1.537 1.537 0 0 0 2.475 1.205l-.004.003zm-5.001.259c0 .029-.029.029-.057.057v.029a3.613 3.613 0 0 0-1.673.81l.005-.004a5.99 5.99 0 0 0-.776.891c-.575.805.776 1.581 1.323.776.718-1.007 1.609-1.294 2.587-.977a50.52 50.52 0 0 0-1.34 2.498l-.213.462c-.633 1.236-1.983 2.214-3.306 1.466a.801.801 0 0 0-.865 1.349l.003.002a3.854 3.854 0 0 0 1.931.512 3.894 3.894 0 0 0 3.037-1.453l.006-.007c.029 0 .087.029.114.029.857.357 1.661.831 2.387 1.409.345.287.949 1.751 1.293 2.501a.795.795 0 0 0 1.209.257l-.002.001a.682.682 0 0 0 .115-.832c-.403-.832-1.064-2.53-1.61-2.934a17.665 17.665 0 0 0-1.289-.967l-.062-.04.057-.057a9.33 9.33 0 0 0-.526-.321l-.049-.025c.489-.919.978-1.81 1.495-2.702a3.637 3.637 0 0 0 3.478-.719c.295-.263.556-.562.776-.891.546-.718-.517-1.437-1.15-.949a.413.413 0 0 0-.086.113l-.001.002a2.506 2.506 0 0 1-1.134.943l-.017.006c-.029.029-.057.029-.057.057h-.029a2.361 2.361 0 0 1-2.078-.264l.009.005.058-.058h.029a.217.217 0 0 0-.114-.057h-.001a5.055 5.055 0 0 0-.516-.303l-.03-.014a4.113 4.113 0 0 0-2.246-.661c-.243 0-.481.021-.712.061l.025-.004.003.002z" style="fill:var(--color2, #fff)"/></symbol><symbol id="icon-business" viewBox="0 0 32 32"><path d="M32 16c0 8.837-7.163 16-16 16S0 24.837 0 16 7.163 0 16 0s16 7.163 16 16z" style="fill:var(--color1, #000)"/><path fill="#fff" d="M20 12.571h-1.143a2.858 2.858 0 0 0-5.714 0H12a1.14 1.14 0 0 0-1.137 1.143l-.006 6.857c0 .629.514 1.143 1.143 1.143h8c.629 0 1.143-.514 1.143-1.143v-6.857c0-.629-.514-1.143-1.143-1.143zm-4-1.714c.949 0 1.714.766 1.714 1.714h-3.429c0-.949.766-1.714 1.714-1.714zm0 5.714a2.858 2.858 0 0 1-2.857-2.857h1.143c0 .949.766 1.714 1.714 1.714s1.714-.766 1.714-1.714h1.143A2.858 2.858 0 0 1 16 16.571z" style="fill:var(--color2, #fff)"/></symbol><symbol id="icon-crypto" viewBox="0 0 32 32"><path d="M32 16c0 8.837-7.163 16-16 16S0 24.837 0 16 7.163 0 16 0s16 7.163 16 16z" style="fill:var(--color1, #000)"/><path fill="#fff" d="M14.857 16c-.629 0-1.143.514-1.143 1.143s.514 1.143 1.143 1.143S16 17.772 16 17.143 15.486 16 14.857 16zm-2.286-2.286c-.629 0-1.143.514-1.143 1.143S11.942 16 12.571 16s1.143-.514 1.143-1.143-.514-1.143-1.143-1.143zm0 4.572c-.629 0-1.143.514-1.143 1.143s.514 1.143 1.143 1.143 1.143-.514 1.143-1.143-.514-1.143-1.143-1.143zm6.858-4.572c.629 0 1.143-.514 1.143-1.143s-.514-1.143-1.143-1.143-1.143.514-1.143 1.143.514 1.143 1.143 1.143zm-2.286 4.572c-.629 0-1.143.514-1.143 1.143s.514 1.143 1.143 1.143 1.143-.514 1.143-1.143-.514-1.143-1.143-1.143zM19.429 16c-.629 0-1.143.514-1.143 1.143s.514 1.143 1.143 1.143 1.143-.514 1.143-1.143S20.058 16 19.429 16zm-2.286-2.286c-.629 0-1.143.514-1.143 1.143S16.514 16 17.143 16s1.143-.514 1.143-1.143-.514-1.143-1.143-1.143zm-2.286-2.285c-.629 0-1.143.514-1.143 1.143s.514 1.143 1.143 1.143S16 13.201 16 12.572s-.514-1.143-1.143-1.143z" style="fill:var(--color2, #fff)"/></symbol><symbol id="icon-design" viewBox="0 0 32 32"><path d="M32 16c0 8.837-7.163 16-16 16S0 24.837 0 16 7.163 0 16 0s16 7.163 16 16z" style="fill:var(--color1, #000)"/><path fill="#fff" d="M20 10.857h-8c-.629 0-1.143.514-1.143 1.143v8c0 .629.514 1.143 1.143 1.143h8c.629 0 1.143-.514 1.143-1.143v-8c0-.629-.514-1.143-1.143-1.143zM20 20l-4-4.571V20h-4l4-4.571V12h4v8z" style="fill:var(--color2, #fff)"/></symbol><symbol id="icon-photography" viewBox="0 0 32 32"><path d="M32 16c0 8.837-7.163 16-16 16S0 24.837 0 16 7.163 0 16 0s16 7.163 16 16z" style="fill:var(--color1, #000)"/><path fill="#fff" d="m17.714 10.286 1.046 1.143h1.811c.629 0 1.143.514 1.143 1.143v6.857c0 .629-.514 1.143-1.143 1.143h-9.143a1.146 1.146 0 0 1-1.143-1.143v-6.857c0-.629.514-1.143 1.143-1.143h1.811l1.046-1.143h3.429zM16 13.143a2.858 2.858 0 0 0 0 5.714 2.858 2.858 0 0 0 0-5.714zm0 1.028a1.83 1.83 0 0 1 0 3.658 1.83 1.83 0 0 1 0-3.658z" style="fill:var(--color2, #fff)"/></symbol><symbol id="icon-logo-dark" viewBox="0 0 124 32"><path fill="#13183f" d="M10.686 31.373c-2.383 0-4.456-.563-6.217-1.688S1.51 27.043.874 25.137l4.37-2.066c.556 1.165 1.311 2.079 2.264 2.741s2.013.993 3.178.993c.847 0 1.496-.172 1.946-.516s.675-.821.675-1.43c0-.318-.079-.589-.238-.814s-.397-.43-.715-.616a4.91 4.91 0 0 0-1.156-.469l-.035-.008-3.694-1.033c-1.774-.503-3.138-1.318-4.092-2.443s-1.43-2.456-1.43-3.992c0-1.351.344-2.529 1.033-3.535s1.655-1.794 2.9-2.364c1.245-.569 2.675-.854 4.29-.854 2.119 0 3.979.497 5.581 1.49s2.734 2.39 3.396 4.191l-4.409 2.066c-.318-.9-.894-1.622-1.728-2.165s-1.781-.814-2.84-.814c-.768 0-1.37.159-1.807.477s-.655.755-.655 1.311c0 .291.079.556.238.794s.417.45.775.636c.358.185.801.358 1.331.516l3.456 1.033c1.801.53 3.178 1.331 4.131 2.403s1.43 2.39 1.43 3.953c0 1.351-.351 2.529-1.053 3.535s-1.675 1.794-2.92 2.364-2.714.854-4.409.854zm11.957-.476V.826h5.959v19.266l-2.225-.715 9.574-10.169H43.3l-7.865 8.739 7.826 12.95h-6.753l-6.554-11.004 3.456-.874-6.634 7.23 1.827-3.456v8.104zm23.278 0V9.208h5.959v21.689h-5.959zm0-23.636V1.302h5.959v5.959h-5.959zm10.328 23.636V.826h5.959v30.071zm10.329 0V.826h5.959v30.071zm20.775.476c-2.304 0-4.303-.51-5.998-1.529a10.65 10.65 0 0 1-3.905-4.056l-.028-.056c-.927-1.721-1.39-3.628-1.39-5.72 0-2.172.483-4.105 1.45-5.8a10.923 10.923 0 0 1 3.864-3.985l.049-.027c1.642-.98 3.496-1.47 5.561-1.47 1.721 0 3.244.271 4.568.814s2.443 1.304 3.357 2.284c.887.95 1.595 2.08 2.063 3.327l.023.069c.477 1.284.715 2.681.715 4.191 0 .424-.02.841-.06 1.251s-.113.761-.218 1.053H81.157v-4.37h12.871l-2.82 2.066c.265-1.139.252-2.152-.04-3.039s-.801-1.589-1.529-2.105c-.728-.516-1.622-.775-2.681-.775-1.033 0-1.92.252-2.662.755s-1.298 1.245-1.668 2.225c-.371.98-.516 2.172-.437 3.575-.106 1.218.04 2.291.437 3.218s1.006 1.649 1.827 2.165 1.814.775 2.979.775c1.059 0 1.966-.212 2.721-.636a4.608 4.608 0 0 0 1.756-1.726l.012-.022 4.767 2.264c-.424 1.059-1.092 1.986-2.006 2.781s-1.993 1.41-3.238 1.847c-1.245.437-2.609.655-4.092.655zm24.033 0c-2.119 0-4.012-.503-5.681-1.51a11.047 11.047 0 0 1-3.924-4.037l-.028-.055c-.967-1.721-1.45-3.628-1.45-5.72 0-2.119.49-4.032 1.47-5.74a11.248 11.248 0 0 1 3.923-4.044l.049-.028c1.668-1.006 3.535-1.51 5.601-1.51 1.589 0 2.999.298 4.231.894s2.205 1.437 2.92 2.522l-.914 1.192V.824h5.959v30.071h-5.561v-3.972l.556 1.231c-.742 1.059-1.748 1.86-3.019 2.403s-2.648.814-4.131.814zm.716-5.363c1.086 0 2.039-.252 2.86-.755a5.244 5.244 0 0 0 1.913-2.076l.014-.03c.463-.9.695-1.933.695-3.098s-.232-2.198-.695-3.098a5.239 5.239 0 0 0-1.905-2.093l-.022-.013c-.821-.503-1.774-.755-2.86-.755s-2.059.258-2.92.775a5.417 5.417 0 0 0-1.992 2.077l-.014.029c-.477.887-.715 1.913-.715 3.079s.238 2.198.715 3.098a5.252 5.252 0 0 0 1.982 2.092l.024.013c.861.503 1.834.755 2.92.755z" style="fill:var(--color3, #13183f)"/></symbol><symbol id="icon-logo-light" viewBox="0 0 124 32"><path fill="#fff" d="M10.686 31.373c-2.383 0-4.456-.563-6.217-1.688S1.51 27.043.874 25.137l4.37-2.066c.556 1.165 1.311 2.079 2.264 2.741s2.013.993 3.178.993c.847 0 1.496-.172 1.946-.516s.675-.821.675-1.43c0-.318-.079-.589-.238-.814s-.397-.43-.715-.616a4.91 4.91 0 0 0-1.156-.469l-.035-.008-3.694-1.033c-1.774-.503-3.138-1.318-4.092-2.443s-1.43-2.456-1.43-3.992c0-1.351.344-2.529 1.033-3.535s1.655-1.794 2.9-2.364c1.245-.569 2.675-.854 4.29-.854 2.119 0 3.979.497 5.581 1.49s2.734 2.39 3.396 4.191l-4.409 2.066c-.318-.9-.894-1.622-1.728-2.165s-1.781-.814-2.84-.814c-.768 0-1.37.159-1.807.477s-.655.755-.655 1.311c0 .291.079.556.238.794s.417.45.775.636c.358.185.801.358 1.331.516l3.456 1.033c1.801.53 3.178 1.331 4.131 2.403s1.43 2.39 1.43 3.953c0 1.351-.351 2.529-1.053 3.535s-1.675 1.794-2.92 2.364-2.714.854-4.409.854zm11.957-.476V.826h5.959v19.266l-2.225-.715 9.574-10.169H43.3l-7.865 8.739 7.826 12.95h-6.753l-6.554-11.004 3.456-.874-6.634 7.23 1.827-3.456v8.104zm23.278 0V9.208h5.959v21.689h-5.959zm0-23.636V1.302h5.959v5.959h-5.959zm10.328 23.636V.826h5.959v30.071zm10.329 0V.826h5.959v30.071zm20.775.476c-2.304 0-4.303-.51-5.998-1.529a10.65 10.65 0 0 1-3.905-4.056l-.028-.056c-.927-1.721-1.39-3.628-1.39-5.72 0-2.172.483-4.105 1.45-5.8a10.923 10.923 0 0 1 3.864-3.985l.049-.027c1.642-.98 3.496-1.47 5.561-1.47 1.721 0 3.244.271 4.568.814s2.443 1.304 3.357 2.284c.887.95 1.595 2.08 2.063 3.327l.023.069c.477 1.284.715 2.681.715 4.191 0 .424-.02.841-.06 1.251s-.113.761-.218 1.053H81.157v-4.37h12.871l-2.82 2.066c.265-1.139.252-2.152-.04-3.039s-.801-1.589-1.529-2.105c-.728-.516-1.622-.775-2.681-.775-1.033 0-1.92.252-2.662.755s-1.298 1.245-1.668 2.225c-.371.98-.516 2.172-.437 3.575-.106 1.218.04 2.291.437 3.218s1.006 1.649 1.827 2.165 1.814.775 2.979.775c1.059 0 1.966-.212 2.721-.636a4.608 4.608 0 0 0 1.756-1.726l.012-.022 4.767 2.264c-.424 1.059-1.092 1.986-2.006 2.781s-1.993 1.41-3.238 1.847c-1.245.437-2.609.655-4.092.655zm24.033 0c-2.119 0-4.012-.503-5.681-1.51a11.047 11.047 0 0 1-3.924-4.037l-.028-.055c-.967-1.721-1.45-3.628-1.45-5.72 0-2.119.49-4.032 1.47-5.74a11.248 11.248 0 0 1 3.923-4.044l.049-.028c1.668-1.006 3.535-1.51 5.601-1.51 1.589 0 2.999.298 4.231.894s2.205 1.437 2.92 2.522l-.914 1.192V.824h5.959v30.071h-5.561v-3.972l.556 1.231c-.742 1.059-1.748 1.86-3.019 2.403s-2.648.814-4.131.814zm.716-5.363c1.086 0 2.039-.252 2.86-.755a5.244 5.244 0 0 0 1.913-2.076l.014-.03c.463-.9.695-1.933.695-3.098s-.232-2.198-.695-3.098a5.239 5.239 0 0 0-1.905-2.093l-.022-.013c-.821-.503-1.774-.755-2.86-.755s-2.059.258-2.92.775a5.417 5.417 0 0 0-1.992 2.077l-.014.029c-.477.887-.715 1.913-.715 3.079s.238 2.198.715 3.098a5.252 5.252 0 0 0 1.982 2.092l.024.013c.861.503 1.834.755 2.92.755z" style="fill:var(--color2, #fff)"/></symbol></defs></svg>